<svg width="118" height="122" viewBox="0 0 118 122" fill="none" xmlns="http://www.w3.org/2000/svg">
<g opacity="1">
<path d="M58.3978 58.8H41.705L36.8223 50.3316L32.9009 43.5416L36.8223 36.7363" stroke="white" stroke-width="1.02818" stroke-miterlimit="10"/>
<path d="M36.8226 36.7353H28.9493L25.0278 29.8996L30.5819 20.2715L32.8707 16.3195L36.8379 9.4685L40.7593 2.66317L41.7053 1H58.3981" stroke="white" stroke-width="1.02818" stroke-miterlimit="10"/>
<path d="M58.3983 51.9931H45.6422L40.7595 43.54L36.8229 36.7347L40.8053 29.8989H32.8862L38.486 20.1793L40.7595 16.2579L44.681 9.46786L45.6422 7.80469H58.3983" stroke="white" stroke-width="1.02818" stroke-miterlimit="10"/>
<path d="M58.3982 14.6562H49.594L40.8052 29.8994L49.594 45.1426H58.3982" stroke="white" stroke-width="1.02818" stroke-miterlimit="10"/>
<path d="M32.8854 29.9004L28.9487 36.7362" stroke="white" stroke-width="1.02818" stroke-miterlimit="10"/>
<path d="M87.8468 36.7362L83.9102 29.9004" stroke="white" stroke-width="1.02818" stroke-miterlimit="10"/>
<path d="M58.3979 58.8H75.0907L79.9734 50.3316L83.8948 43.5416L79.9734 36.7363" stroke="white" stroke-width="1.02818" stroke-miterlimit="10"/>
<path d="M79.9734 36.7353L87.862 36.6743L91.7682 29.8996L86.2141 20.2715L83.9253 16.3195L79.9581 9.4685L76.0367 2.66317L75.0907 1H58.3979" stroke="white" stroke-width="1.02818" stroke-miterlimit="10"/>
<path d="M58.3979 51.9931H71.154L76.0367 43.54L79.9734 36.7347L75.9909 29.8989H83.9101L78.3102 20.1793L76.0367 16.2579L72.1153 9.46786L71.154 7.80469H58.3979" stroke="white" stroke-width="1.02818" stroke-miterlimit="10"/>
<path d="M58.3979 14.6562H67.2021L75.9909 29.8994L67.2021 45.1426H58.3979" stroke="white" stroke-width="1.02818" stroke-miterlimit="10"/>
<path d="M49.594 14.6557L45.6421 7.80469" stroke="white" stroke-width="1.02818" stroke-miterlimit="10"/>
<path d="M67.2017 14.6557L71.1536 7.80469" stroke="white" stroke-width="1.02818" stroke-miterlimit="10"/>
<path d="M16.1466 88.1679C17.328 88.1679 18.6111 88.2901 19.9961 88.5345C21.3811 88.7789 22.963 89.1659 24.7418 89.6955V91.9155C23.1938 91.4946 21.7681 91.1891 20.4646 90.999C19.161 90.8089 17.8915 90.7139 16.6558 90.7139C15.0264 90.7139 13.526 90.9447 12.1546 91.4064C10.7832 91.8544 9.67655 92.513 8.83469 93.382C8.00641 94.251 7.57191 95.2898 7.53117 96.4982C7.50401 97.7339 7.98605 98.7726 8.97727 99.6145C9.96849 100.456 11.2516 101.088 12.8267 101.509C14.4154 101.93 16.0991 102.167 17.8779 102.222C20.417 101.801 23.35 101.468 26.6767 101.224L26.0657 103.382C21.191 103.708 17.2126 104.313 14.1303 105.195C11.048 106.064 8.82112 107.103 7.4497 108.311C6.07828 109.52 5.39258 110.817 5.39258 112.202C5.39258 113.967 6.41095 115.291 8.44771 116.173C10.4845 117.056 13.4174 117.497 17.2465 117.497C18.971 117.497 20.6886 117.389 22.3995 117.171C24.1239 116.954 26.2829 116.554 28.8764 115.97V119.208C26.4187 119.901 24.2869 120.376 22.481 120.634C20.6886 120.905 18.8284 121.041 16.9002 121.041C13.818 121.041 11.1838 120.736 8.99763 120.125C6.82509 119.514 5.16853 118.624 4.02795 117.456C2.90094 116.289 2.33744 114.87 2.33744 113.2C2.33744 110.878 3.3694 108.922 5.43331 107.334C7.5108 105.745 10.1654 104.503 13.397 103.607C10.7764 103.104 8.63781 102.242 6.98125 101.02C5.32468 99.7978 4.4964 98.2431 4.4964 96.3557C4.4964 94.7806 5.01917 93.3752 6.06471 92.1396C7.11024 90.8904 8.52239 89.9195 10.3012 89.227C12.0799 88.5209 14.0284 88.1679 16.1466 88.1679ZM35.781 109.595H33.6628L33.5609 80.306H35.781V109.595ZM66.8415 105.847C67.0045 105.847 67.1402 105.881 67.2489 105.949C67.3711 106.017 67.4322 106.091 67.4322 106.173V109.106C67.4322 109.242 67.3779 109.357 67.2692 109.452C67.1606 109.533 67.018 109.574 66.8415 109.574C65.8367 109.574 64.8319 109.445 63.8271 109.187C62.8223 108.916 61.9397 108.569 61.1793 108.148C60.4325 107.728 59.903 107.293 59.5907 106.845L59.8351 105.562C59.1154 106.811 58.0291 107.795 56.5763 108.515C55.137 109.221 53.3989 109.574 51.3622 109.574C49.7192 109.574 48.049 109.404 46.3517 109.065C44.668 108.712 42.5837 108.162 40.0989 107.415L40.4248 104.951C42.7738 105.48 44.6341 105.833 46.0055 106.01C47.3769 106.173 48.823 106.254 50.3438 106.254C52.8015 106.254 54.6957 105.833 56.0263 104.992C57.3706 104.136 58.0427 102.962 58.0427 101.468C58.0427 100.11 57.8323 98.8677 57.4113 97.7407C57.004 96.6001 56.3183 95.4934 55.3542 94.4208C54.3901 93.3345 53.0798 92.2414 51.4233 91.1416L54.3358 89.9806C56.5219 91.7458 58.1378 93.5721 59.1833 95.4595C60.2288 97.3333 60.7516 99.533 60.7516 102.059C60.7516 102.724 60.6701 103.362 60.5072 103.973C61.2269 104.693 62.0687 105.188 63.0328 105.46C64.0104 105.718 65.28 105.847 66.8415 105.847ZM74.7238 89.7566C75.5385 91.4267 76.1563 93.0901 76.5772 94.7466C77.0117 96.3896 77.229 97.9511 77.229 99.4312C77.229 101.427 76.8488 103.186 76.0884 104.706C75.3416 106.227 74.2078 107.422 72.687 108.291C71.1662 109.146 69.2856 109.574 67.0452 109.574C66.923 109.574 66.8279 109.54 66.76 109.472C66.6786 109.391 66.6378 109.289 66.6378 109.167V106.254C66.6378 106.132 66.6786 106.037 66.76 105.969C66.8279 105.888 66.923 105.847 67.0452 105.847C68.7968 105.847 70.2633 105.541 71.4446 104.93C72.6259 104.306 73.5017 103.45 74.072 102.364C74.6559 101.264 74.9478 100.001 74.9478 98.5757C74.9478 97.2315 74.6898 95.799 74.1738 94.2782C73.6579 92.7574 72.9043 91.2434 71.913 89.7362L74.7238 89.7566ZM74.4386 115.847L71.7705 117.986L69.0412 115.847L71.7094 113.75L74.4386 115.847ZM101.385 94.8485C103.395 96.2063 104.949 97.374 106.049 98.3517C107.149 99.3158 107.93 100.226 108.391 101.081C108.867 101.936 109.097 102.846 109.084 103.81C109.07 104.937 108.717 105.935 108.025 106.804C107.332 107.673 106.307 108.352 104.949 108.841C103.591 109.33 101.955 109.574 100.041 109.574H83.6855L82.1987 106.152C86.1092 104.347 89.3884 102.615 92.0362 100.959C94.684 99.3022 96.7886 97.4623 98.3501 95.4391L83.8892 86.0089L84.0521 85.6831H87.6572L99.3889 93.9319C100.611 91.8816 101.202 89.6751 101.161 87.3125L101.039 78.5137H103.462V87.5161C103.462 90.1232 102.77 92.5673 101.385 94.8485ZM100.367 105.827C101.507 105.827 102.512 105.711 103.381 105.48C104.25 105.236 104.915 104.896 105.377 104.462C105.852 104.027 106.09 103.511 106.09 102.914C106.09 101.814 105.628 100.782 104.705 99.8182C103.795 98.8405 102.288 97.7542 100.183 96.5593C97.3861 100.076 92.8034 103.165 86.4351 105.827H100.367ZM86.0074 119.086C85.3828 119.086 84.8193 119.113 84.3169 119.167C83.8145 119.222 83.1288 119.351 82.2598 119.554V118.006C83.0201 117.789 83.6244 117.64 84.0725 117.558C84.5341 117.49 85.0841 117.45 85.7222 117.436H85.9259C85.6408 117.287 85.3896 117.097 85.1723 116.866C84.9008 116.621 84.6971 116.336 84.5613 116.01C84.4391 115.698 84.378 115.379 84.378 115.053C84.378 114.428 84.5681 113.865 84.9483 113.363C85.3285 112.86 85.8445 112.46 86.4962 112.161C87.1616 111.876 87.9084 111.733 88.7366 111.733C89.7686 111.733 90.9974 111.971 92.4232 112.446V114.035C91.1468 113.655 90.1013 113.464 89.2866 113.464C88.4176 113.464 87.7386 113.634 87.2498 113.974C86.7746 114.327 86.5369 114.795 86.5369 115.379C86.5369 115.976 86.8425 116.465 87.4535 116.845C87.9966 117.226 88.6891 117.423 89.531 117.436H93.8896L93.3397 119.086H86.0074ZM115.052 109.595H112.933L112.831 80.306H115.052V109.595Z" fill="white"/>
</g>
</svg>
