<svg width="81" height="78" viewBox="0 0 81 78" fill="none" xmlns="http://www.w3.org/2000/svg">
<path d="M63.9619 65.3748L64.0434 65.2933C64.6251 64.7042 65.1215 64.4412 65.7291 64.4375C66.6404 64.4375 67.1776 64.9562 68.2779 66.0379C69.6968 67.4383 71.2639 68.8239 72.957 70.2724C72.9829 70.7985 73.0014 71.2727 72.957 71.6617L72.8755 71.6839C71.1231 70.1872 69.1893 68.2793 67.3517 66.4677L66.9257 66.049C66.4478 65.5785 65.9662 65.6341 65.5735 65.8194C65.3215 65.9379 65.1141 66.1194 65.0178 66.2158L64.914 66.3195L63.9619 65.3748Z" fill="white"/>
<path d="M59.2085 63.9901C59.8013 64.042 60.3051 64.0679 60.8497 64.079C60.8719 64.5458 60.8571 64.9978 60.8238 65.3757C60.2792 65.3794 59.7827 65.3312 59.19 65.2423C59.1529 64.731 59.1455 64.3865 59.2085 63.9901ZM60.7052 62.623C61.298 62.6749 61.8018 62.7008 62.3464 62.712C62.3686 63.1788 62.3538 63.6307 62.3205 64.0086C61.7759 64.0123 61.2794 63.9642 60.6867 63.8752C60.6533 63.364 60.6459 63.0195 60.7052 62.623ZM64.9545 66.3092C64.258 66.865 63.7172 67.3355 63.4615 67.7541C63.2578 68.0912 63.1689 68.3468 63.28 68.4876C63.5875 68.8729 64.6211 69.3656 65.714 69.8621C65.7992 70.3733 65.84 70.8475 65.8362 71.281L65.7955 71.3143C64.8878 70.9513 63.6282 70.277 62.9799 69.4657C62.4909 68.8507 62.3575 68.1764 62.339 67.4799C62.4131 66.8168 62.8984 66.2277 64.1543 65.2312L64.2543 65.1534C64.7063 64.794 65.0916 65.0237 65.2657 65.246C65.4213 65.4423 65.5325 65.8499 65.0916 66.2055L64.9545 66.3092Z" fill="white"/>
<path d="M55.4298 72.495L54.7852 71.3168L55.5483 70.8982C55.2779 70.2944 55.1445 69.42 55.2112 68.6309C55.3297 67.1676 56.0781 66.108 56.5634 65.8413C57.4007 65.3819 58.5417 65.2596 59.7235 65.3152L59.7347 65.7042C59.2716 65.7079 58.7529 65.8116 58.2009 66.1154C57.271 66.6267 56.6894 67.5454 56.3411 68.7865C56.1485 69.4793 56.0448 70.0128 56.1818 70.55L56.6338 70.3018C58.5084 69.2718 59.7939 69.3459 60.5015 70.6315C60.8461 71.2576 60.9054 71.8466 60.8461 72.369C60.7757 73.0655 60.4941 73.7101 59.9162 74.0287C59.0715 74.4918 57.5452 73.7879 56.2522 72.043L55.4298 72.495ZM58.2528 72.6913C58.7307 72.8617 59.1715 72.858 59.5087 72.6728C60.0236 72.3912 60.3052 71.6614 60.1051 71.2946C59.8458 70.8241 59.2642 70.7871 58.601 70.9353C58.0194 71.076 57.4674 71.3761 56.8709 71.7058C57.2562 72.1615 57.7526 72.5209 58.2528 72.6913Z" fill="white"/>
<path d="M48.4723 77.6933C48.1462 76.9634 47.9425 76.3559 47.8313 75.9298C47.7091 75.4741 47.7387 74.848 47.8276 74.4442C48.0425 73.7033 48.4426 73.0846 49.0317 72.929C49.4688 72.8141 50.0208 73.0142 50.5247 73.4328L50.6062 73.4106C50.9322 72.7919 51.399 72.2659 52.151 72.0658C52.7067 71.9176 53.1328 72.088 53.3551 72.6697L53.3958 72.6586C53.8219 71.7731 54.6369 71.4064 55.326 71.2211L55.5001 71.1767C56.0595 71.0285 56.3188 71.3952 56.3892 71.6657C56.4522 71.9102 56.3929 72.3288 55.8446 72.4733L55.5001 72.5659C54.5813 72.8216 53.9108 73.2476 53.6107 74.0775L53.2662 75.0259L52.5586 75.5075L52.503 75.4667C52.7364 74.711 52.8846 74.1256 52.8031 73.8218C52.7179 73.5069 52.4548 73.3699 52.1399 73.4551C51.8473 73.5329 51.5398 73.7255 51.3138 73.9885C51.0285 74.3479 51.0581 74.6554 51.0211 75.7927L50.5061 76.3077L50.4358 76.2818C50.432 75.9372 50.3802 75.5371 50.3024 75.2519C50.0986 74.4813 49.4244 74.2368 48.939 74.3664C48.6538 74.4405 48.4426 74.6628 48.5241 74.9666C48.6278 75.363 48.9242 75.978 49.2132 76.5411C49.0168 76.9523 48.7946 77.3376 48.5426 77.697L48.4723 77.6933Z" fill="white"/>
<path d="M32.5234 73.6472L32.7235 72.3209L33.3237 72.4099C33.3348 72.1135 33.3644 71.8653 33.394 71.6578C33.4459 71.317 33.8868 70.6279 34.0572 70.4315C35.5761 69.4276 37.6545 68.9978 39.1808 69.2275C40.5071 69.4276 41.3629 70.0203 41.8667 70.7761C42.4039 71.5874 42.5114 72.6321 42.3335 73.8065C42.1779 74.8439 41.5741 76.185 40.8442 77.0852L40.4775 76.8481C41.0702 75.8553 41.3962 75.0328 41.5 74.34C41.6333 73.4583 41.4629 72.5951 41.0072 71.9542C40.4738 71.2058 39.618 70.7501 38.6436 70.602C37.6878 70.4575 36.5468 70.576 35.2019 70.9984C34.6944 71.1873 34.2758 71.3799 34.1609 71.5726C34.3239 72.1061 35.3872 72.7211 37.0395 72.9693L37.1025 73.1175L36.1874 74.1992L32.5234 73.6472ZM38.0731 66.0674C38.4362 66.5342 38.7622 66.9232 39.1252 67.327C38.7992 67.6604 38.4584 67.9605 38.1583 68.1902C37.7841 67.7938 37.4804 67.4011 37.1432 66.9047C37.4952 66.5342 37.7434 66.2934 38.0731 66.0674ZM40.0959 66.2341C40.4589 66.7009 40.785 67.0899 41.148 67.4937C40.822 67.8271 40.4812 68.1272 40.1811 68.3569C39.8069 67.9605 39.5031 67.5678 39.166 67.0714C39.5142 66.6972 39.7625 66.4601 40.0959 66.2341Z" fill="white"/>
<path d="M32.3677 73.3074C32.001 73.1481 31.4712 72.9703 30.8562 72.8851L30.834 72.9332C31.3119 73.6705 31.4971 74.4744 31.1303 75.3117C30.9488 75.7266 30.6154 76.0711 30.1634 76.3897C29.3817 76.9417 28.4555 77.1751 27.6109 76.801C26.718 76.4083 26.2364 75.4969 26.166 74.2966L26.4328 74.1854C26.7588 74.856 27.1811 75.2487 27.8813 75.5562C28.9001 76.0044 29.8448 75.86 29.993 75.5228C30.193 75.0709 30.1338 74.4744 29.767 73.7964C29.5188 73.3445 29.1113 72.8888 28.8334 72.7665C28.1036 72.4442 27.0996 72.359 25.7881 72.2404L25.7622 72.1701L26.7958 71.2031C28.5407 71.3291 29.3039 71.5736 30.645 71.7033C31.5897 71.7959 32.4492 71.8774 33.2161 72.2145L33.5125 72.3442C34.0423 72.5776 34.0163 73.0221 33.9015 73.2852C33.8014 73.5149 33.4902 73.8038 32.9716 73.5741L32.3677 73.3074Z" fill="white"/>
<path d="M26.1072 68.5463C25.6589 69.0427 25.2477 69.6651 24.8735 70.2467L24.3178 71.1099C23.2768 72.7215 21.9394 75.1814 21.0984 76.7967C20.6464 76.956 20.0648 77.1042 19.6313 77.1745L19.5684 77.0967C20.6242 75.0554 22.0172 72.7993 23.3435 70.7432C23.6917 70.206 24.0474 69.6873 24.3437 69.3279C24.6846 68.8612 25.1588 68.6426 26.0331 68.4092L26.1072 68.5463Z" fill="white"/>
<path d="M18.4752 62.5518L18.6234 62.6851C19.3236 63.3186 19.6385 64.1411 19.0606 65.3896L19.0976 65.4229C19.4273 65.1821 19.8163 65.0821 20.335 65.1821C21.1315 65.3377 21.8465 65.6044 22.3689 66.0786C23.2395 66.8678 23.2432 67.831 22.417 68.7423C22.2429 68.935 22.0651 69.1165 21.8725 69.298L21.5464 69.0461C22.0984 68.3719 22.1392 67.6865 21.3945 67.0122C20.9833 66.6381 20.3313 66.375 19.7756 66.2528C19.3384 66.1564 18.9124 66.1898 18.742 66.3787C18.2641 66.9085 17.6046 68.194 16.7674 69.8538C16.3413 69.9649 15.919 70.0872 15.4892 70.1538L15.4707 70.0797C16.1968 68.7016 17.0415 67.2864 17.8677 65.9527C18.4234 65.0561 18.2863 64.1929 17.7046 63.6669L17.5713 63.5483L18.4752 62.5518Z" fill="white"/>
<path d="M17.7823 63.515C17.2414 62.8074 16.782 62.2591 16.3671 61.9961C16.0337 61.7886 15.778 61.6923 15.6373 61.8034C15.2446 62.1035 14.737 63.1297 14.2184 64.2115C13.7071 64.2856 13.2292 64.3189 12.7995 64.3078L12.7661 64.2671C13.1477 63.3668 13.8442 62.1183 14.6666 61.4885C15.2927 61.0106 15.967 60.8884 16.6635 60.8847C17.3266 60.9736 17.9046 61.4663 18.8789 62.7407L18.9567 62.8408C19.3086 63.3001 19.0715 63.678 18.8456 63.8521C18.6455 64.004 18.2343 64.1078 17.8897 63.6595L17.7823 63.515ZM19.216 59.9177C19.2049 59.3843 19.2494 58.8211 19.342 58.2358C19.7828 58.1913 20.2274 58.2024 20.6868 58.3025C20.6275 58.8619 20.609 59.3917 20.5831 59.9437C20.1089 59.9474 19.6458 59.9437 19.216 59.9177Z" fill="white"/>
<path d="M3.67498 58.5915C3.74536 58.5693 3.81575 58.5433 3.88244 58.51C4.43444 58.2284 4.91235 57.5727 5.39396 56.7836C5.59772 56.8577 5.87558 56.9614 6.14232 57.1207C7.25744 56.4909 8.32069 55.9167 9.45804 55.3313C10.0841 55.0127 10.8362 54.8053 11.4364 54.7089C12.2921 54.5904 12.9294 54.6311 13.5443 54.9386C14.3483 55.3387 15.1485 56.1204 15.5375 56.8799C15.982 57.7505 16.1636 58.6582 16.2858 59.4065L16.1821 59.4584C15.0188 57.7801 13.9 56.5576 12.8293 55.8944C12.4811 56.1315 12.0069 56.9614 11.4623 57.9246C10.851 58.9916 10.2434 60.1512 9.51361 61.4886C8.93567 62.5481 8.55779 63.1446 8.2466 63.3002C8.04284 63.4039 7.36858 63.3594 7.13148 63.3298L7.09813 63.2891C7.39451 62.6889 7.66866 61.8442 7.95392 60.9292L8.6393 60.9551C9.55066 59.4176 10.3472 57.9765 11.0362 56.9281C11.3512 56.4613 11.8068 56.0389 12.4552 55.6944L12.4366 55.6314C11.9106 55.361 11.2141 55.3128 10.3546 55.7537C9.40247 56.239 8.25771 56.9318 6.70173 57.9246C6.29051 58.158 5.72368 58.5655 5.30135 58.7804C5.01238 58.9286 4.77157 58.9694 4.53817 58.9212C4.2455 58.8804 3.96024 58.7804 3.66016 58.6767L3.67498 58.5915ZM17.3195 54.9016C17.6121 54.8942 17.8863 54.9053 18.1419 54.9423C18.768 55.8018 19.4274 56.4909 20.0832 57.0133L20.0646 57.0466L19.5571 57.0244C19.4126 56.9947 19.1681 56.8836 19.031 56.7502L19.0014 56.7651C19.094 57.2726 18.9606 57.7023 18.5605 57.9098C18.3086 58.0395 17.9233 58.0247 17.5158 57.8913C17.0008 57.6949 16.6007 57.4171 16.4044 57.0318C16.2117 56.6576 16.3192 56.3316 16.56 56.2093C16.8045 56.0871 17.0675 56.139 17.3195 56.1982L17.3306 56.2168C17.1787 56.4242 17.0935 56.5835 17.1194 56.7021C17.1342 56.7762 17.1824 56.8947 17.2379 57.0059C17.4047 57.3319 17.7603 57.5653 17.8974 57.4912C18.3457 57.2615 18.0937 56.402 17.8122 55.85C17.6492 55.5314 17.4676 55.2239 17.2861 54.9164L17.3195 54.9016Z" fill="white"/>
<path d="M12.792 51.6121C12.1289 51.7084 11.4139 51.9196 10.7544 52.1234L9.77268 52.4272C7.93884 52.9977 5.33443 54.0239 3.64878 54.7204C3.20051 54.55 2.65962 54.2906 2.28174 54.0683L2.28544 53.9683C4.40454 53.0792 6.92375 52.2419 9.26143 51.5195C9.8727 51.3306 10.4803 51.1638 10.936 51.0749C11.4954 50.9342 12.0029 51.0749 12.8217 51.4565L12.792 51.6121Z" fill="white"/>
<path d="M0.744536 38.5382C3.33784 38.4975 5.61624 38.4715 8.12433 38.5123C8.61706 38.5197 9.22834 38.3085 9.47656 38.0084C9.65809 37.7787 9.76923 37.4453 9.78775 36.9859V36.8711L11.1289 36.8933L11.1252 37.0934C11.114 37.8491 10.8621 38.4011 10.3101 38.7272V38.7679C10.8436 38.8494 11.3882 38.9643 11.8661 39.1606C12.3848 39.494 12.7478 39.9201 13.0331 40.3869C13.4628 41.0648 13.6592 41.8354 13.6481 42.5801C13.6332 43.4914 13.3072 44.2435 12.7108 44.7473C12.1477 45.2215 11.3437 45.4697 10.3286 45.4549C9.44692 45.4401 8.5689 45.1437 7.69459 44.7103L7.84648 44.3361C8.43923 44.6065 9.05792 44.7955 9.6655 44.8066C10.2842 44.8177 10.8214 44.6584 11.2993 44.2991C11.8957 43.8582 12.1662 43.2432 12.1773 42.4986C12.1884 41.7947 11.9995 41.2056 11.7142 40.6758C11.4401 40.1572 11.1215 39.7311 10.7362 39.5163C10.6213 39.494 10.5176 39.4385 10.0434 39.4311C8.40589 39.4051 5.68663 39.4459 1.59292 39.6089C1.25579 39.2792 0.94459 38.9606 0.688965 38.6197L0.744536 38.5382Z" fill="white"/>
<path d="M9.83562 36.9931C10.1172 35.9262 9.68002 35.4446 8.7946 34.8852C7.63132 34.1553 7.18305 33.181 7.36087 32.4993C7.49054 32.0029 7.77209 31.6732 8.36114 31.462C8.7946 31.3064 9.23546 31.1916 10.5358 30.9507C11.073 30.8544 11.5694 30.4099 11.7843 29.5874L11.8288 29.417L13.1291 29.7578L13.0773 29.9505C12.9217 30.5395 12.5771 31.0322 11.7843 31.2805L11.7732 31.3212C12.0807 31.4694 12.3178 31.6398 12.4586 31.8473C12.6253 32.1177 12.6771 32.3734 12.6179 32.6068C12.4215 33.3922 11.5287 34.5221 10.4432 35.1037L10.4321 35.1445C11.0063 35.6002 11.3879 36.3819 11.0989 37.4785L11.0582 37.6304C10.91 38.1898 10.4654 38.2342 10.1913 38.1601C9.94676 38.0971 9.61334 37.8341 9.75782 37.2858L9.83562 36.9931ZM10.5617 33.5292C10.947 33.1439 11.2842 32.603 11.3768 32.2474C11.4287 32.0548 11.4546 31.8658 11.2212 31.8065C10.8248 31.7028 10.2135 31.8028 9.7393 31.9584C9.0354 32.1955 8.59825 32.5808 8.4834 33.018C8.33521 33.5774 8.60936 34.1035 9.09097 34.4258C9.49108 34.4184 10.1913 33.9071 10.5617 33.5292Z" fill="white"/>
<path d="M11.9143 29.3771C12.3366 28.5806 12.6552 27.9174 12.7404 26.7023L12.7034 26.6837C12.1884 26.9579 11.4475 27.1209 10.8177 27.3469C10.4806 27.4654 10.1731 27.621 10.0879 27.7803L9.93598 28.0693L9.90263 28.0878L9.02832 27.1616L9.14317 26.8542C9.36915 26.0465 9.67294 25.1166 10.1583 24.209C10.7288 23.1346 11.3993 22.3011 12.0477 21.7676L12.8849 22.6271L13.5184 25.0314L13.5555 25.05C14.2186 24.6054 14.7706 23.9941 15.1893 23.2087L15.3856 22.8382L16.5711 23.468L16.4229 23.7459C15.8709 24.7832 14.8707 25.7242 13.7 26.254L13.6814 26.291C13.9 27.8692 13.6333 28.9992 13.0405 30.1106L12.8886 30.3996C12.6182 30.9108 12.1736 30.8515 11.9217 30.7182C11.6994 30.5996 11.4364 30.2699 11.6994 29.7698L11.9143 29.3771ZM12.796 25.5316C12.696 24.7795 12.57 23.9867 12.3218 23.0939L12.2848 23.0753C11.8921 23.5199 11.4808 24.0275 11.1363 24.6758C10.8177 25.2797 10.5806 25.8761 10.3917 26.48L10.4287 26.4985C10.6658 26.4096 10.9585 26.3281 11.2474 26.2318C11.6957 26.0799 12.2366 25.8428 12.7738 25.5686L12.796 25.5316Z" fill="white"/>
<path d="M15.5149 22.9822C15.7187 22.7155 15.9262 22.3858 16.0114 21.8782C16.0706 21.4596 15.8891 21.078 15.4557 20.7446C14.1145 19.7332 12.5956 18.6996 10.9655 17.6511C10.558 17.3881 10.1727 17.1695 9.86523 16.9324C9.6837 16.7916 9.55774 16.562 9.50217 16.2545C9.4503 16.0285 9.41696 15.7506 9.39844 15.4468L9.48365 15.4209C10.0097 15.8544 10.8544 16.0989 11.9028 16.2211C11.9288 16.4804 11.9325 16.762 11.9214 17.0695C12.8994 17.7734 13.9627 18.4773 14.8814 19.1886C15.778 19.8814 16.3929 20.5075 16.7078 21.1336C16.9968 21.6337 17.1895 22.1042 17.0857 22.634C17.0005 23.086 16.7819 23.5416 16.53 23.8639L16.4337 23.9899C16.0817 24.4456 15.652 24.3122 15.4297 24.1418C15.2297 23.9862 15.0259 23.6157 15.3741 23.1712L15.5149 22.9822Z" fill="white"/>
<path d="M19.6313 20.3515C19.2274 19.8181 18.6977 19.2957 18.1975 18.8178L17.4566 18.1065C16.071 16.7802 13.9112 14.9982 12.4849 13.8646C12.4145 13.3904 12.3811 12.7902 12.3922 12.353L12.4811 12.3086C14.2853 13.7312 16.2377 15.5317 18.0012 17.2211C18.4643 17.6656 18.9051 18.1139 19.2015 18.4732C19.5979 18.8956 19.7202 19.4031 19.7831 20.3071L19.6313 20.3515Z" fill="white"/>
<path d="M28.6967 13.8047C27.3852 14.3901 26.1626 14.6902 25.0808 14.5272C23.9842 14.3604 23.0358 13.7232 22.5172 12.5562C22.1726 11.7783 21.9837 10.9447 22.0504 9.98517L22.5061 9.97776C22.5653 10.6039 22.6876 11.1373 22.8765 11.5597C23.2729 12.4525 24.1213 12.9934 25.0846 13.1157C26.0811 13.2342 27.2074 12.9082 28.4077 12.3747C29.5302 11.8746 30.7305 11.1707 31.7493 10.3853L31.616 10.2927C31.0788 9.91108 30.8417 9.4554 30.6342 8.9849C30.3119 8.25507 30.1489 7.32889 30.4934 6.34714C30.7565 5.59878 31.201 4.96528 31.5456 4.81338C31.8901 4.66149 32.4977 4.86155 33.1386 5.38021C33.5646 5.71734 33.8981 6.11004 34.1092 6.58053C34.5019 7.46226 34.5501 8.26618 34.4612 9.09974C34.8724 9.04417 35.3911 8.89228 36.032 8.60702L36.3395 8.46994L36.8841 9.6962L36.6062 9.81846C35.6763 10.2334 34.9206 10.4668 33.5091 10.5742C32.2754 11.7894 30.2378 13.1194 28.6967 13.8047ZM29.2931 1.84961C29.8155 1.96075 30.3527 2.13858 30.901 2.36457C30.8417 2.80172 30.7268 3.23517 30.5231 3.65751C29.9896 3.46857 29.4821 3.32779 28.9523 3.17219C29.056 2.71281 29.1672 2.26454 29.2931 1.84961ZM33.8981 7.53265C33.7425 7.18811 33.4646 6.92137 33.2831 6.77318C32.7978 6.38048 32.3421 6.1582 31.9494 6.33232C31.201 6.66574 30.8676 7.88089 31.0121 8.66629C31.3937 9.16272 32.042 9.50726 32.9756 9.38871C33.5684 8.92933 34.0722 7.92535 33.8981 7.53265Z" fill="white"/>
<path d="M46.735 9.88985L46.4719 9.90096C45.1716 9.95653 44.5566 9.58236 44.2713 9.00813L44.2084 9.01183C43.6527 9.73055 43.0673 10.0492 42.4597 10.0751C42.0078 10.0936 41.478 9.97876 41.2816 9.25264H41.2409C40.7926 9.78612 40.2406 10.1677 39.4663 10.201C38.8884 10.227 38.5105 9.96765 38.4216 9.35266H38.3808C37.7733 10.1232 36.899 10.3085 36.1877 10.3381L36.0098 10.3455C35.4319 10.3715 35.2578 9.95653 35.2467 9.67498C35.2355 9.42306 35.3874 9.02665 35.9543 9.00442L36.3099 8.9896C37.262 8.93774 37.9844 8.65618 38.4809 7.91894L38.9699 7.07797L39.7664 6.75936L39.8109 6.81123C39.4404 7.51883 39.1811 8.02638 39.1922 8.33757C39.207 8.66359 39.4552 8.85253 39.7812 8.83771C40.085 8.8266 40.4147 8.70434 40.6778 8.48576C40.9334 8.28571 41.1779 7.90783 41.3187 7.53365L41.5447 6.90385L42.3264 6.50374L42.3708 6.54449C42.0893 7.35582 41.9929 7.74852 42.0078 8.13381C42.0189 8.41537 42.2115 8.73398 42.619 8.71545C42.9636 8.70063 43.1785 8.56727 43.3341 8.45242C43.6378 8.23014 43.7934 7.87819 43.8972 7.4188C43.9305 7.24839 43.9861 7.04833 44.0713 6.58154L44.8456 6.01101L44.89 6.04065C44.7715 6.50744 44.6715 7.1002 44.69 7.48919C44.7233 8.31905 45.4606 8.58949 46.4571 8.54874L46.6868 8.53763L46.735 9.88985ZM40.9445 5.02555C40.4962 4.63656 40.1072 4.31425 39.6738 3.98823C39.9294 3.59924 40.2073 3.23988 40.4592 2.95832C40.9038 3.27693 41.2742 3.60665 41.7003 4.02899C41.4224 4.45873 41.2261 4.74029 40.9445 5.02555ZM41.415 2.76938C40.9667 2.38039 40.5777 2.05808 40.1406 1.73206C40.3962 1.34306 40.6741 0.983707 40.926 0.702148C41.3706 1.02075 41.741 1.35047 42.1671 1.77281C41.8929 2.20256 41.6966 2.48412 41.415 2.76938ZM42.9599 4.80327C42.5116 4.41428 42.1226 4.09197 41.6892 3.76595C41.9448 3.37696 42.2226 3.0176 42.4746 2.73604C42.9191 3.05464 43.2896 3.38436 43.7156 3.8067C43.4415 4.23645 43.2414 4.51801 42.9599 4.80327Z" fill="white"/>
<path d="M53.8185 11.8087L53.6147 11.7605C52.3663 11.4716 51.8513 10.6232 51.3475 9.49324C51.1104 8.97458 50.8918 8.48185 50.7102 8.15213L50.6695 8.14102C50.2916 9.73405 49.1172 10.7232 46.2201 10.0564L45.9423 9.99338C45.3792 9.86371 45.3199 9.41915 45.3829 9.145C45.4384 8.90049 45.6904 8.55965 46.2424 8.68561L46.6499 8.77823C47.4797 8.96717 48.4911 9.05238 49.2617 8.756C49.4951 8.67079 49.8471 8.5152 49.8767 8.37071C49.9248 8.15584 49.8878 7.90021 49.8322 7.62977C49.6136 6.61097 48.8653 5.28468 48.0243 3.93987C47.8132 3.58792 47.6427 3.30266 47.539 3.09519C47.5501 2.91366 47.5538 2.7099 47.5983 2.51726C47.665 2.23199 47.8317 1.96896 48.0762 1.70222C48.191 1.57626 48.3763 1.46882 48.5319 1.40955C49.7544 0.968685 52.3588 0.698241 55.3708 0.464844L55.3967 0.535233C55.0818 0.916819 54.7188 1.27247 54.3186 1.6096C53.6703 1.62072 52.7219 1.71704 51.8031 1.82818C50.4694 2.00601 49.2098 2.19865 48.4059 2.41353L48.3985 2.44316C48.869 2.92848 49.4025 3.32118 49.7878 3.60274L49.3617 4.0436C50.2286 5.28839 51.1845 7.01479 52.2033 8.96347C52.6219 9.7711 53.1183 10.2712 53.9371 10.4602L54.1112 10.5009L53.8185 11.8087Z" fill="white"/>
<path d="M53.9888 10.6418C54.7297 10.9641 55.63 11.0048 56.0116 10.5195L56.7451 9.60444L57.6194 9.41179L57.6491 9.50441C57.3008 9.93786 57.0415 10.3157 56.9489 10.5269C56.8007 10.864 56.7673 11.1789 56.9192 11.4642C57.1193 11.8495 57.4342 12.1459 57.9417 12.3682L58.1159 12.4423L57.5787 13.6722L57.3564 13.5759C56.4154 13.1647 55.8152 12.5941 55.8041 11.7309L55.7671 11.7161C55.1595 12.2163 54.2518 12.2237 53.4257 11.8606L53.2442 11.7791C52.7144 11.5494 52.7403 11.1011 52.8515 10.8418C52.9515 10.6121 53.2627 10.3232 53.7813 10.5491L53.9888 10.6418ZM56.6377 7.45941C56.408 6.91111 56.1968 6.45172 55.9486 5.96641C56.3487 5.7293 56.7562 5.52925 57.1082 5.38477C57.3675 5.86638 57.5564 6.32576 57.7565 6.89259C57.3193 7.15933 57.0156 7.32604 56.6377 7.45941ZM58.5493 8.14478C58.3196 7.59648 58.1085 7.1371 57.8602 6.65178C58.2603 6.41468 58.6679 6.21462 59.0198 6.07014C59.2791 6.55175 59.4681 7.01114 59.6681 7.57796C59.2273 7.8447 58.9272 8.01141 58.5493 8.14478Z" fill="white"/>
<path d="M65.8216 19.4213L65.6104 19.2657C64.562 18.4952 64.3175 17.8209 64.4546 17.1911L64.4027 17.1541C63.521 17.3652 62.8615 17.2467 62.3725 16.8836C62.0094 16.6169 61.6686 16.1945 61.9687 15.5055L61.9354 15.4795C61.25 15.6129 60.5831 15.5647 59.957 15.1053C59.4939 14.7645 59.3569 14.3274 59.6755 13.7902L59.6421 13.7642C58.6863 13.9865 57.8898 13.579 57.3119 13.1567L57.1674 13.0492C56.7043 12.7084 56.8228 12.2749 56.9933 12.0489C57.1414 11.8452 57.5082 11.634 57.9639 11.9674L58.2529 12.1786C59.0271 12.7343 59.7681 12.9677 60.6128 12.7047L61.5204 12.3564L62.3392 12.6084L62.3429 12.675C61.613 12.9974 61.0907 13.227 60.9054 13.479C60.7128 13.742 60.7906 14.0458 61.0499 14.2384C61.2944 14.42 61.6279 14.5348 61.9724 14.5274C62.2947 14.5311 62.7245 14.3903 63.069 14.1866L63.6395 13.8383L64.499 14.0162L64.5064 14.0754C63.7803 14.5311 63.458 14.7756 63.2283 15.0868C63.0616 15.3165 63.0134 15.6833 63.3394 15.9241C63.6173 16.1278 63.8692 16.1575 64.0582 16.1686C64.436 16.1871 64.7769 16.0056 65.1436 15.7166C65.277 15.6055 65.4474 15.4832 65.8031 15.172L66.7626 15.2128L66.7774 15.2646C66.3921 15.5573 65.9439 15.9537 65.7142 16.2686C65.2214 16.9355 65.6252 17.6097 66.4292 18.2025L66.6144 18.3396L65.8216 19.4213Z" fill="white"/>
<path d="M66.244 18.4797C66.8294 19.1503 67.3258 19.669 67.7556 19.9061C68.1001 20.0913 68.3631 20.1691 68.4965 20.0543C68.867 19.7282 69.3115 18.6724 69.7598 17.5573C70.2637 17.4498 70.7379 17.3869 71.1713 17.372L71.2046 17.4128C70.8823 18.3353 70.2674 19.6245 69.4857 20.3099C68.8929 20.8285 68.2261 20.9915 67.5333 21.0397C66.8664 20.9953 66.2588 20.5359 65.203 19.3281L65.1215 19.2318C64.7436 18.7984 64.9548 18.402 65.166 18.2167C65.3549 18.05 65.7587 17.9203 66.1329 18.3501L66.244 18.4797ZM73.0829 14.4453C73.1274 14.9751 73.12 15.5419 73.0644 16.131C72.6273 16.2051 72.1827 16.2199 71.7159 16.1532C71.7381 15.5901 71.7233 15.0603 71.7159 14.5083C72.1901 14.4749 72.6532 14.4453 73.0829 14.4453Z" fill="white"/>
<path d="M71.7459 28.8804L71.694 28.7766C71.3124 28.0394 71.2161 27.4874 71.4013 26.9094C71.6829 26.0425 72.3423 25.6906 73.7094 24.9793C75.4802 24.0605 77.2807 22.9973 79.1812 21.834C79.6888 21.9711 80.1482 22.1007 80.5001 22.26L80.4964 22.3452C78.5329 23.553 76.1211 24.8015 73.8279 25.9907L73.3018 26.2685C72.7054 26.576 72.6091 27.0539 72.6683 27.4837C72.7054 27.7615 72.8128 28.0135 72.8758 28.132L72.9425 28.2617L71.7459 28.8804Z" fill="white"/>
<path d="M72.9383 28.2235C73.2532 29.0571 73.5311 29.7166 73.8497 30.0907C74.1053 30.3871 74.3239 30.5501 74.4906 30.4871C74.9537 30.313 75.7391 29.4794 76.5504 28.594C77.0617 28.6718 77.5247 28.7756 77.936 28.9126L77.9545 28.9608C77.3284 29.7128 76.2985 30.702 75.3278 31.0688C74.5906 31.3466 73.9089 31.2651 73.2421 31.0651C72.6345 30.7872 72.2233 30.1463 71.6602 28.6422L71.6157 28.5236C71.412 27.9827 71.7491 27.6901 72.0158 27.59C72.2529 27.5011 72.6753 27.5234 72.8716 28.0531L72.9383 28.2235ZM80.759 26.8454C80.6145 27.3603 80.4107 27.8827 80.1514 28.4199C79.7179 28.3347 79.2919 28.1939 78.8844 27.9642C79.103 27.4456 79.2734 26.9454 79.4623 26.4268C79.9106 26.5601 80.3551 26.6935 80.759 26.8454Z" fill="white"/>
<path d="M75.8055 38.5269L74.4903 38.801L74.3125 37.949C73.6531 38.0342 72.7825 37.9045 72.0452 37.6081C70.6782 37.0672 69.8854 36.0447 69.7705 35.5001C69.5742 34.5665 69.789 33.4366 70.1892 32.3252L70.5633 32.4289C70.43 32.8735 70.3818 33.3996 70.5078 34.0145C70.7263 35.0519 71.4339 35.878 72.5231 36.5745C73.1307 36.9635 73.6123 37.2154 74.1643 37.2376L74.0606 36.7338C73.6234 34.6369 74.068 33.4292 75.5054 33.1291C76.2019 32.9846 76.7835 33.0958 77.2689 33.3069C77.9172 33.5811 78.4507 34.0368 78.584 34.6814C78.7804 35.6261 77.6616 36.8783 75.6166 37.6081L75.8055 38.5269ZM76.8169 35.8817C77.117 35.4742 77.2429 35.0519 77.1651 34.674C77.0429 34.0998 76.4279 33.6181 76.0167 33.7034C75.4943 33.8145 75.2868 34.3591 75.235 35.037C75.1979 35.6335 75.3276 36.2522 75.4684 36.919C76.0204 36.6819 76.5094 36.3115 76.8169 35.8817Z" fill="white"/>
<path d="M75.8131 38.8053C75.8057 39.2054 75.8502 39.7611 76.0095 40.3613H76.0613C76.5541 39.6352 77.2246 39.1536 78.136 39.1684C78.588 39.1758 79.0362 39.3499 79.503 39.6426C80.3144 40.1501 80.8886 40.9133 80.8738 41.8358C80.859 42.8101 80.2032 43.6103 79.1251 44.1364L78.9177 43.9327C79.4104 43.3732 79.6068 42.8324 79.6179 42.0655C79.6364 40.9541 79.1363 40.139 78.7658 40.1316C78.2731 40.1242 77.7433 40.4095 77.2617 41.0096C76.9394 41.4134 76.68 41.9654 76.6763 42.2692C76.6652 43.0657 76.9727 44.0253 77.3728 45.2812L77.321 45.333L76.028 44.7551C75.4686 43.0991 75.3945 42.2989 74.9981 41.0133C74.7202 40.1057 74.4609 39.2832 74.472 38.446L74.4757 38.1199C74.4868 37.542 74.9092 37.3938 75.1907 37.3975C75.4427 37.4012 75.828 37.5754 75.8205 38.1422L75.8131 38.8053Z" fill="white"/>
<path d="M76.9099 47.2636C76.0208 47.0969 75.2428 47.3081 74.9575 48.5899C74.7797 49.3901 74.8723 50.1199 75.1242 50.9609C75.165 51.1091 75.2428 51.2017 75.3243 51.2202C75.8763 51.3425 76.6839 51.1498 77.4841 50.6942C78.2399 50.2496 78.966 49.5976 79.4995 48.9529C79.6773 48.7344 79.8292 48.6825 79.9515 48.7084C80.2071 48.7677 80.6776 49.1715 80.9999 49.4938L80.9925 49.579C80.296 50.2941 79.3291 51.0572 78.3251 51.55C77.4063 51.9982 76.532 52.2131 75.6725 52.0205C75.039 51.8797 74.4722 51.5796 73.9758 51.1906C73.6386 50.157 73.446 49.0937 73.6609 48.1305C73.9239 46.9635 74.7463 46.3078 76.2616 46.6486C76.4246 46.6857 76.6802 46.7412 76.9988 46.8672L76.9099 47.2636Z" fill="white"/>
<path d="M47.9813 31.1557C46.8664 31.3153 45.6399 31.5034 44.609 31.5347C43.4437 31.5718 39.4231 31.4573 38.8544 30.2881C38.8315 30.2399 38.8515 30.1825 38.8996 30.1598C38.9189 30.1512 38.941 30.1479 38.9617 30.1526C39.6728 30.3152 40.4268 30.5714 41.0763 30.6831C43.2929 31.0647 45.6207 30.9276 47.8094 30.4607C48.3595 30.3435 48.8772 30.1419 49.3621 29.8568C49.5544 29.7435 49.7562 29.7051 49.9683 29.7396C50.0017 29.7451 50.0178 29.7651 50.0159 29.7992C49.9565 30.5433 49.8874 31.0787 49.8072 31.4055C49.1692 33.9984 48.9753 36.623 49.2267 39.2806C49.28 39.845 49.4804 40.395 49.8265 40.9319C50.0787 41.3242 49.3561 41.7427 49.0992 41.004C48.8705 40.347 48.7186 39.6319 48.6435 38.8588C48.4304 36.6453 48.5043 34.4905 48.8651 32.3945C48.8724 32.3497 48.854 32.2179 48.8453 32.1865C48.8143 32.0688 48.7494 32.0439 48.6486 32.1125C47.8787 32.6358 47.2315 33.3072 46.5542 33.939C46.1491 34.3172 45.696 34.7543 45.1955 35.248C41.4187 38.9806 37.7544 42.7495 33.7948 46.3847C33.2469 46.8871 32.3992 47.582 31.7339 48.2339C31.7032 48.2633 31.6551 48.2619 31.6256 48.231C31.6068 48.2109 31.6001 48.1828 31.6074 48.1568C31.6247 48.098 31.6607 48.0406 31.7154 47.9818C32.3972 47.2544 33.0828 46.3906 33.6932 45.7333C34.9562 44.3725 36.0183 43.2608 36.8798 42.3967C40.5917 38.6727 44.307 34.9547 48.0257 31.2441C48.0457 31.2241 48.0456 31.1906 48.0255 31.1705C48.0141 31.1592 47.9974 31.1531 47.9813 31.1557Z" fill="white"/>
</svg>
